<svg xmlns="http://www.w3.org/2000/svg" viewBox="0 0 32 32" shape-rendering="crispEdges"><title>怎么了</title><g transform="translate(1 11) scale(0.6)"><path d="M5 15V7H7V4H11V6H13V9H15V6H17V4H22V7H24V15H26V25H24V27H6V25H4V15Z" fill="#f5f5ef" stroke="#171719" stroke-width="1" stroke-linejoin="miter"/><rect x="8" y="19" width="3" height="4" fill="#171719"/><rect x="9" y="20" width="1" height="1" fill="#f5f5ef"/><rect x="20" y="19" width="3" height="4" fill="#171719"/><rect x="21" y="20" width="1" height="1" fill="#f5f5ef"/><path d="M13 23H14V24H16V23H17" fill="none" stroke="#171719" stroke-width="1" stroke-linejoin="miter"/></g><path d="M20 10H28V12H30V22H28V24H22V26H20V24H18V12H20Z" fill="#f5f5ef" stroke="#171719" stroke-width="1" stroke-linejoin="miter"/><path d="M22 14H26V17H24V19" fill="none" stroke="#171719" stroke-width="1" stroke-linejoin="miter"/><rect x="24" y="21" width="1" height="1" fill="#171719"/><path d="M8 2V7M12 0V8M16 2V7" fill="none" stroke="#171719" stroke-width="1" stroke-linejoin="miter"/></svg>
