<svg xmlns="http://www.w3.org/2000/svg" viewBox="0 0 32 32" shape-rendering="crispEdges"><title>闪闪</title><g transform="translate(0 0) scale(1)"><path d="M6 1V4H9V7H11V9H9V12H6V15H3V12H1V9H3V7H6Z" fill="#f5f5ef" stroke="#171719" stroke-width="1" stroke-linejoin="miter"/></g><g transform="translate(16 10) scale(0.9)"><path d="M6 1V4H9V7H11V9H9V12H6V15H3V12H1V9H3V7H6Z" fill="#bbbcc2" stroke="#171719" stroke-width="1" stroke-linejoin="miter"/></g><g transform="translate(9 24) scale(0.6)"><g transform="translate(0 0) scale(1)"><path d="M5 0H6V4H10V5H6V9H5V5H1V4H5Z" fill="#f5f5ef" stroke="#171719" stroke-width="1" stroke-linejoin="miter"/></g></g></svg>
