<svg xmlns="http://www.w3.org/2000/svg" viewBox="0 0 32 32" shape-rendering="crispEdges"><title>爱心抱抱</title><g transform="translate(0 0) scale(1.8)"><path d="M2 5H4V3H8V5H10V3H14V5H16V10H14V12H12V14H10V16H8V14H6V12H4V10H2Z" fill="#f5f5ef" stroke="#171719" stroke-width="1" stroke-linejoin="miter"/></g><g transform="translate(9 17) scale(0.45)"><path d="M5 15V7H7V4H11V6H13V9H15V6H17V4H22V7H24V15H26V25H24V27H6V25H4V15Z" fill="#f5f5ef" stroke="#171719" stroke-width="1" stroke-linejoin="miter"/><rect x="8" y="19" width="3" height="4" fill="#171719"/><rect x="9" y="20" width="1" height="1" fill="#f5f5ef"/><rect x="20" y="19" width="3" height="4" fill="#171719"/><rect x="21" y="20" width="1" height="1" fill="#f5f5ef"/><path d="M13 23H14V24H16V23H17" fill="none" stroke="#171719" stroke-width="1" stroke-linejoin="miter"/></g></svg>
