<svg xmlns="http://www.w3.org/2000/svg" viewBox="0 0 32 32" shape-rendering="crispEdges"><title>心动</title><g transform="translate(8 1) scale(0.6)"><path d="M2 5H4V3H8V5H10V3H14V5H16V10H14V12H12V14H10V16H8V14H6V12H4V10H2Z" fill="#171719" stroke="#171719" stroke-width="1" stroke-linejoin="miter"/></g><g transform="translate(21 12) scale(0.7)"><g transform="translate(0 0) scale(1)"><path d="M5 0H6V4H10V5H6V9H5V5H1V4H5Z" fill="#f5f5ef" stroke="#171719" stroke-width="1" stroke-linejoin="miter"/></g></g><g transform="translate(3 22) scale(0.65)"><g transform="translate(0 0) scale(1)"><path d="M5 0H6V4H10V5H6V9H5V5H1V4H5Z" fill="#f5f5ef" stroke="#171719" stroke-width="1" stroke-linejoin="miter"/></g></g></svg>
