<svg xmlns="http://www.w3.org/2000/svg" viewBox="0 0 32 32" shape-rendering="crispEdges"><title>抱抱</title><path d="M12 3H20V5H24V8H27V12H29V20H27V24H24V27H20V29H12V27H8V24H5V20H3V12H5V8H8V5H12Z" fill="none" stroke="#171719" stroke-width="1" stroke-linejoin="miter"/><g transform="translate(9 16) scale(0.45)"><path d="M5 15V7H7V4H11V6H13V9H15V6H17V4H22V7H24V15H26V25H24V27H6V25H4V15Z" fill="#f5f5ef" stroke="#171719" stroke-width="1" stroke-linejoin="miter"/><rect x="8" y="19" width="3" height="4" fill="#171719"/><rect x="9" y="20" width="1" height="1" fill="#f5f5ef"/><rect x="20" y="19" width="3" height="4" fill="#171719"/><rect x="21" y="20" width="1" height="1" fill="#f5f5ef"/><path d="M13 23H14V24H16V23H17" fill="none" stroke="#171719" stroke-width="1" stroke-linejoin="miter"/></g><path d="M10 6H7V10H6V23H9M22 6H25V10H26V23H23" fill="none" stroke="#171719" stroke-width="1" stroke-linejoin="miter"/></svg>
